<svg width="869" height="548" overflow="visible" viewBox="0 0 868.771 547.481" fill="none" xmlns="http://www.w3.org/2000/svg">
<path id="Blur asset" d="M51.1699 138.68C83.8433 16.7557 288.24 -34.4126 507.707 24.3914C601.386 49.4926 682.668 90.5734 742.528 138.901C820.556 182.227 868.77 241.917 868.771 307.819C868.771 440.183 674.283 547.481 434.377 547.481L423.177 547.407C188.45 544.127 0.000278744 438.116 0 307.819C0.0011497 267.934 17.6618 230.323 48.9023 197.239C45.4542 177.405 46.0624 157.742 51.1699 138.68ZM434.377 106.259C319.617 106.26 217.604 132.003 145.636 171.709C124.186 183.543 106.084 196.173 91.2051 209.269C100.511 237.355 120.347 267.76 152.218 298.597C207.951 352.521 294.576 401.072 399.259 429.123C503.942 457.173 603.237 458.437 678.466 439.605C755.127 420.414 798.021 383.309 809.148 341.78C820.274 300.251 801.675 246.687 744.882 191.738C737.487 184.583 729.547 177.523 721.095 170.592C649.243 131.519 548.061 106.259 434.377 106.259ZM497.846 61.1951C393.163 33.1464 293.862 31.8978 218.634 50.7303C141.982 69.922 99.1024 107.016 87.9736 148.542C86.5322 153.921 85.59 159.504 85.1641 165.264C162.231 107.887 284.644 70.1668 423.177 68.2313L434.377 68.1561C473.323 68.1561 511.072 70.9851 546.986 76.2889C531.111 70.7674 514.713 65.7147 497.846 61.1951ZM38.1016 307.819C38.1017 353.746 72.3195 403.477 145.636 443.929C217.605 483.635 319.615 509.379 434.377 509.38C495.691 509.38 553.367 502.03 604.768 489.131C539.062 493.415 465.126 486.218 389.397 465.927C228.959 422.936 104.881 333.076 62.5059 240.214C46.0558 262.656 38.1025 285.68 38.1016 307.819Z" fill="url(#paint0_linear_0_13)"/>
<defs>
<linearGradient id="paint0_linear_0_13" x1="36.997" y1="167.265" x2="831.771" y2="380.228" gradientUnits="userSpaceOnUse">
<stop stop-color="#CDB4EA"/>
<stop offset="1" stop-color="#9B8ED1"/>
</linearGradient>
</defs>
</svg>
