<svg width="32" height="32" viewBox="0 -16.6 80 80" fill="none" xmlns="http://www.w3.org/2000/svg">
<path d="M4.71191 12.6651C7.72082 1.53013 26.5425 -3.14279 46.752 2.22764C55.3759 4.51949 62.8584 8.27061 68.3701 12.6827C75.5582 16.6398 79.9998 22.0923 80 28.1124C79.9999 40.2009 62.0907 50.0001 39.999 50.0001L38.9678 49.9933C17.3531 49.6937 6.57022e-05 40.0121 0 28.1124C0.000105828 24.4702 1.62685 21.037 4.50293 18.0157C4.18495 16.2035 4.24138 14.4068 4.71191 12.6651ZM39.999 9.7042C29.4314 9.70431 20.0374 12.0555 13.4102 15.6817C11.4353 16.7624 9.76936 17.9166 8.39941 19.1124C9.25641 21.6772 11.082 24.4546 14.0166 27.2706C19.1488 32.1952 27.1261 36.6288 36.7656 39.1905C46.405 41.7521 55.5483 41.8683 62.4756 40.1485C69.535 38.3958 73.4851 35.0068 74.5098 31.214C75.5343 27.4212 73.8216 22.5293 68.5918 17.5108C67.9112 16.8578 67.1802 16.2138 66.4023 15.5812C59.7858 12.0123 50.4683 9.7042 39.999 9.7042ZM45.8438 5.58897C36.2042 3.02738 27.0601 2.91308 20.1328 4.63291C13.0745 6.38561 9.12552 9.77319 8.10059 13.5655C7.96779 14.0571 7.881 14.5675 7.8418 15.0939C14.9385 9.85352 26.2108 6.40832 38.9678 6.23155L39.999 6.22471C43.5873 6.22471 47.0652 6.48395 50.374 6.96885C48.9106 6.4639 47.3988 6.00221 45.8438 5.58897ZM3.50781 28.1124C3.50785 32.3067 6.65898 36.8488 13.4102 40.5431C20.0374 44.1694 29.4312 46.5205 39.999 46.5206C45.6452 46.5206 50.9562 45.8481 55.6895 44.67C49.639 45.0613 42.8308 44.405 35.8574 42.5519C21.084 38.6257 9.6594 30.4192 5.75684 21.9386C4.24186 23.9883 3.5079 26.0904 3.50781 28.1124Z" fill="#7b68c2"/>
</svg>
